<svg xmlns="http://www.w3.org/2000/svg" viewBox="0 0 19 19"><defs><style>.cls-1{fill:#7f7f7f;}.cls-2{fill:#444;}</style></defs><title>18K_White_Gold</title><g id="Layer_2" data-name="Layer 2"><g id="Layer_1-2" data-name="Layer 1"><path class="cls-1" d="M9.5,0A9.5,9.5,0,1,0,19,9.5,9.51,9.51,0,0,0,9.5,0Zm0,17A7.5,7.5,0,1,1,17,9.5,7.5,7.5,0,0,1,9.5,17Z"/><path class="cls-2" d="M7,12.15v-5a3.89,3.89,0,0,1-1.23.52V7A3.75,3.75,0,0,0,7.19,6.2h.6v6Z"/><path class="cls-2" d="M9.06,10.47A1.6,1.6,0,0,1,10.13,9,1.35,1.35,0,0,1,9.31,7.7c0-.92.65-1.58,1.87-1.58A1.59,1.59,0,0,1,13,7.69a1.24,1.24,0,0,1-.82,1.23,1.57,1.57,0,0,1,1,1.53c0,1.13-.87,1.81-2.11,1.81A1.84,1.84,0,0,1,9.06,10.47Zm3.34,0c0-.75-.48-1.15-1.27-1.15a1.11,1.11,0,0,0-1.26,1.15,1.15,1.15,0,0,0,1.27,1.16A1.12,1.12,0,0,0,12.4,10.44ZM10.09,7.7c0,.5.32.92,1.07.92s1-.34,1-.89a.93.93,0,0,0-1-1C10.4,6.77,10.09,7.15,10.09,7.7Z"/></g></g></svg>